<svg xmlns="http://www.w3.org/2000/svg" width="128" height="32" viewBox="0 0 128 32">
  <g id="Group_11254" data-name="Group 11254" transform="translate(739 2)">
    <text id="HelpDash" transform="translate(-702 21)" font-size="20" font-family="Jost-SemiBold, Jost" font-weight="600" letter-spacing="0.02em"><tspan x="0" y="0">HelpDash</tspan></text>
    <rect id="Rectangle_3021" data-name="Rectangle 3021" width="32" height="32" rx="6" transform="translate(-739 -2)" fill="#599700"/>
    <g id="Group_11249" data-name="Group 11249" transform="translate(-0.325 -0.144)">
      <path id="Path_13262" data-name="Path 13262" d="M19.04,11.735C19.04,7.464,14.778,4,9.52,4S0,7.464,0,11.735a7.131,7.131,0,0,0,3.022,5.642,11.822,11.822,0,0,1-1.943,3.284,12.225,12.225,0,0,0,6.236-1.408,11.557,11.557,0,0,0,2.2.218C14.778,19.469,19.04,16.007,19.04,11.735Z" transform="translate(-734.675 1.144)" fill="#fff"/>
      <path id="Path_13263" data-name="Path 13263" d="M24.879,11.79a8.488,8.488,0,0,1,.21,1.846c0,4.88-4.142,8.949-9.6,9.823a10.2,10.2,0,0,0,3.823.738,10.318,10.318,0,0,0,3.631-.655,13.278,13.278,0,0,0,4.2.6A10.744,10.744,0,0,1,25.7,21.9a6.357,6.357,0,0,0,2.268-4.737A6.577,6.577,0,0,0,24.879,11.79Z" transform="translate(-738.828 -1.34)" fill="#fff"/>
    </g>
  </g>
</svg>
